<svg width="2048" height="2048" xmlns="http://www.w3.org/2000/svg" version="1.1">
 <defs>
  <radialGradient id="svg_8" spreadMethod="pad" cx="0.5" cy="0.5" r="0.5">
   <stop stop-color="#eab820" stop-opacity="0.98047" offset="0.02344"/>
   <stop stop-color="#cc8d04" stop-opacity="0.98828" offset="1"/>
  </radialGradient>
  <radialGradient id="svg_9" spreadMethod="pad" cx="0.5" cy="0.5" r="0.5">
   <stop stop-color="#e2bc22" stop-opacity="0.98828" offset="0.00391"/>
   <stop stop-color="#cc8d04" offset="1" stop-opacity="0.98828"/>
  </radialGradient>
 </defs>
 <g>
  <title>Layer 1</title>
  <g id="svg_39">
   <path d="m1586.99966,1371.66819l8,6l7,7l-4,6l-13,16l-11,14l-14,17l-11,14l-14,17l-8,10l-13,16l-11,14l-14,17l-11,14l-14,17l-8,10l-26,32l-11,14l-9,11l-13,16l-11,14l-14,17l-8,10l-13,16l-7,9l-894,0l3,-5l8,-9l869,0l2,-4l14,-17l11,-14l18,-22l13,-16l11,-14l9,-11l13,-16l11,-14l14,-17l8,-10l13,-16l11,-14l9,-11l26,-32l11,-14l14,-17l11,-14l18,-22l13,-16l7,-9z" fill="#E5E5E5" id="svg_5"/>
   <path d="m1586.99966,1371.66819l8,6l7,7l-4,6l-13,16l-11,14l-14,17l-11,14l-14,17l-8,10l-13,16l-11,14l-14,17l-11,14l-14,17l-8,10l-26,32l-11,14l-9,11l-13,16l-11,14l-14,17l-8,10l-13,16l-7,9l-894,0l3,-5l8,-9l869,0l2,-4l14,-17l11,-14l18,-22l13,-16l11,-14l9,-11l13,-16l11,-14l14,-17l8,-10l13,-16l11,-14l9,-11l26,-32l11,-14l14,-17l11,-14l18,-22l13,-16l7,-9z" fill="#E5E5E5" id="svg_12"/>
   <path d="m1586.99966,1371.66819l8,6l7,7l-4,6l-13,16l-11,14l-14,17l-11,14l-14,17l-8,10l-13,16l-11,14l-14,17l-11,14l-14,17l-8,10l-26,32l-11,14l-9,11l-13,16l-11,14l-14,17l-8,10l-13,16l-7,9l-894,0l3,-5l8,-9l869,0l2,-4l14,-17l11,-14l18,-22l13,-16l11,-14l9,-11l13,-16l11,-14l14,-17l8,-10l13,-16l11,-14l9,-11l26,-32l11,-14l14,-17l11,-14l18,-22l13,-16l7,-9z" fill="#E5E5E5" id="svg_16"/>
   <path d="m1586.99966,1371.66819l8,6l7,7l-4,6l-13,16l-11,14l-14,17l-11,14l-14,17l-8,10l-13,16l-11,14l-14,17l-11,14l-14,17l-8,10l-26,32l-11,14l-9,11l-13,16l-11,14l-14,17l-8,10l-13,16l-7,9l-894,0l3,-5l8,-9l869,0l2,-4l14,-17l11,-14l18,-22l13,-16l11,-14l9,-11l13,-16l11,-14l14,-17l8,-10l13,-16l11,-14l9,-11l26,-32l11,-14l14,-17l11,-14l18,-22l13,-16l7,-9z" fill="#E5E5E5" id="svg_20"/>
   <path d="m1586.99966,1371.66819l8,6l7,7l-4,6l-13,16l-11,14l-14,17l-11,14l-14,17l-8,10l-13,16l-11,14l-14,17l-11,14l-14,17l-8,10l-26,32l-11,14l-9,11l-13,16l-11,14l-14,17l-8,10l-13,16l-7,9l-894,0l3,-5l8,-9l869,0l2,-4l14,-17l11,-14l18,-22l13,-16l11,-14l9,-11l13,-16l11,-14l14,-17l8,-10l13,-16l11,-14l9,-11l26,-32l11,-14l14,-17l11,-14l18,-22l13,-16l7,-9z" fill="#E5E5E5" id="svg_24"/>
   <path d="m1586.99966,1371.66819l8,6l7,7l-4,6l-13,16l-11,14l-14,17l-11,14l-14,17l-8,10l-13,16l-11,14l-14,17l-11,14l-14,17l-8,10l-26,32l-11,14l-9,11l-13,16l-11,14l-14,17l-8,10l-13,16l-7,9l-894,0l3,-5l8,-9l869,0l2,-4l14,-17l11,-14l18,-22l13,-16l11,-14l9,-11l13,-16l11,-14l14,-17l8,-10l13,-16l11,-14l9,-11l26,-32l11,-14l14,-17l11,-14l18,-22l13,-16l7,-9z" fill="#E5E5E5" id="svg_28"/>
   <path d="m1586.99966,1371.66819l8,6l7,7l-4,6l-13,16l-11,14l-14,17l-11,14l-14,17l-8,10l-13,16l-11,14l-14,17l-11,14l-14,17l-8,10l-26,32l-11,14l-9,11l-13,16l-11,14l-14,17l-8,10l-13,16l-7,9l-894,0l3,-5l8,-9l869,0l2,-4l14,-17l11,-14l18,-22l13,-16l11,-14l9,-11l13,-16l11,-14l14,-17l8,-10l13,-16l11,-14l9,-11l26,-32l11,-14l14,-17l11,-14l18,-22l13,-16l7,-9z" fill="#E5E5E5" id="svg_32"/>
   <path d="m1586.99966,1371.66819l8,6l7,7l-4,6l-13,16l-11,14l-14,17l-11,14l-14,17l-8,10l-13,16l-11,14l-14,17l-11,14l-14,17l-8,10l-26,32l-11,14l-9,11l-13,16l-11,14l-14,17l-8,10l-13,16l-7,9l-894,0l3,-5l8,-9l869,0l2,-4l14,-17l11,-14l18,-22l13,-16l11,-14l9,-11l13,-16l11,-14l14,-17l8,-10l13,-16l11,-14l9,-11l26,-32l11,-14l14,-17l11,-14l18,-22l13,-16l7,-9z" fill="#E5E5E5" id="svg_36"/>
   <g id="svg_38">
    <path d="m1076.99966,901.33486l7,6l10,9l12,11l10,9l13,12l10,9l13,12l10,9l12,11l10,9l13,12l10,9l24,22l10,9l12,11l10,9l13,12l12,11l8,7l15,14l10,9l12,11l10,9l13,12l12,11l20,18l15,14l20,18l12,11l13,12l20,18l15,14l20,18l36,33l8,7l15,14l10,9l12,11l4,3l2,4l8,7l4,5l-13,16l-11,14l-9,11l-26,32l-11,14l-14,17l-11,14l-9,11l-26,32l-11,14l-14,17l-11,14l-14,17l-11,14l-14,17l-11,14l-14,17l-8,10l-13,16l-7,9l-894,0l3,-5l8,-10l-25,0l6,-8l10,-11l9,-11l10,-11l9,-11l9,-10l9,-11l11,-12l9,-11l9,-10l9,-11l11,-12l9,-11l9,-10l9,-11l11,-12l9,-11l9,-10l9,-11l10,-11l9,-11l10,-11l9,-11l10,-11l9,-11l9,-10l4,-5l547,0l-9,-31l-20,-64l-19,-63l-26,-84l-16,-53l-25,-81l-13,-43l-24,-78l0,-3z" fill="url(#svg_9)" id="svg_1"/>
    <path d="m686.33301,445.66819l895,0l-6,8l-5,6l24,0l-2,5l-12,13l-9,11l-9,10l-9,11l-11,12l-9,11l-9,10l-9,11l-10,11l-9,11l-10,11l-9,11l-10,11l-9,11l-9,10l-9,11l-10,11l-9,11l-10,11l-9,11l-10,11l-9,11l-9,10l-9,11l-11,12l-6,7l-547,0l9,28l19,62l17,56l18,58l16,53l26,84l16,53l25,81l6,20l-1,4l-15,-14l-10,-9l-12,-11l-10,-9l-36,-33l-10,-9l-12,-11l-10,-9l-13,-12l-10,-9l-24,-22l-10,-9l-12,-11l-10,-9l-13,-12l-12,-11l-8,-7l-15,-14l-10,-9l-12,-11l-10,-9l-13,-12l-12,-11l-20,-18l-15,-14l-20,-18l-12,-11l-13,-12l-20,-18l-13,-12l-12,-11l-10,-9l-36,-33l-8,-7l-15,-14l-16,-14l-1,-3l-8,-7l-5,-4l1,-4l11,-14l14,-17l13,-16l11,-14l14,-17l11,-14l14,-17l11,-14l14,-17l11,-14l14,-17l8,-10l13,-16l11,-14l14,-17l13,-16l11,-14l14,-17l11,-14l14,-17l9,-12z" fill="url(#svg_8)" id="svg_2"/>
    <path d="m1575.99966,459.66819l25,0l-2,5l-12,13l-9,11l-9,10l-9,11l-11,12l-9,11l-9,10l-9,11l-10,11l-9,11l-10,11l-9,11l-10,11l-9,11l-9,10l-9,11l-10,11l-9,11l-10,11l-9,11l-10,11l-9,11l-9,10l-9,11l-11,12l-6,7l-547,0l9,28l19,62l17,56l18,58l16,53l26,84l16,53l25,81l6,20l-1,4l-15,-14l2,-1l-8,-27l-13,-42l-13,-43l-18,-58l-20,-66l-18,-58l-20,-66l-18,-58l-21,-69l-3,-11l547,-1l10,-11l9,-11l10,-11l9,-11l10,-11l9,-11l9,-10l9,-11l10,-11l9,-11l10,-11l9,-11l10,-11l9,-11l9,-10l9,-11l10,-11l9,-11l10,-11l9,-11l10,-11l9,-11l9,-10l9,-11l10,-11z" fill="#E6E6E6" id="svg_6"/>
    <path d="m1076.99966,901.33486l7,6l10,9l12,11l10,9l13,12l10,9l13,12l10,9l12,11l10,9l13,12l10,9l24,22l10,9l12,11l10,9l13,12l12,11l8,7l15,14l10,9l12,11l10,9l13,12l12,11l20,18l15,14l20,18l12,11l13,12l20,18l15,14l20,18l36,33l8,7l15,14l10,9l12,11l4,3l2,4l8,7l4,5l-13,16l-11,14l-9,11l-26,32l-11,14l-14,17l-11,14l-9,11l-26,32l-11,14l-14,17l-11,14l-14,17l-11,14l-14,17l-11,14l-14,17l-8,10l-13,16l-7,9l-894,0l3,-5l8,-10l-25,0l6,-8l10,-11l9,-11l10,-11l9,-11l9,-10l9,-11l11,-12l9,-11l9,-10l9,-11l11,-12l9,-11l9,-10l9,-11l11,-12l9,-11l9,-10l9,-11l10,-11l9,-11l10,-11l9,-11l10,-11l9,-11l9,-10l4,-5l547,0l-9,-31l-20,-64l-19,-63l-26,-84l-16,-53l-25,-81l-13,-43l-24,-78l0,-3z" fill="url(#svg_9)" id="svg_10"/>
    <path d="m686.33301,445.66819l895,0l-6,8l-5,6l24,0l-2,5l-12,13l-9,11l-9,10l-9,11l-11,12l-9,11l-9,10l-9,11l-10,11l-9,11l-10,11l-9,11l-10,11l-9,11l-9,10l-9,11l-10,11l-9,11l-10,11l-9,11l-10,11l-9,11l-9,10l-9,11l-11,12l-6,7l-547,0l9,28l19,62l17,56l18,58l16,53l26,84l16,53l25,81l6,20l-1,4l-15,-14l-10,-9l-12,-11l-10,-9l-36,-33l-10,-9l-12,-11l-10,-9l-13,-12l-10,-9l-24,-22l-10,-9l-12,-11l-10,-9l-13,-12l-12,-11l-8,-7l-15,-14l-10,-9l-12,-11l-10,-9l-13,-12l-12,-11l-20,-18l-15,-14l-20,-18l-12,-11l-13,-12l-20,-18l-13,-12l-12,-11l-10,-9l-36,-33l-8,-7l-15,-14l-16,-14l-1,-3l-8,-7l-5,-4l1,-4l11,-14l14,-17l13,-16l11,-14l14,-17l11,-14l14,-17l11,-14l14,-17l11,-14l14,-17l8,-10l13,-16l11,-14l14,-17l13,-16l11,-14l14,-17l11,-14l14,-17l9,-12z" fill="url(#svg_8)" id="svg_11"/>
    <path d="m1575.99966,459.66819l25,0l-2,5l-12,13l-9,11l-9,10l-9,11l-11,12l-9,11l-9,10l-9,11l-10,11l-9,11l-10,11l-9,11l-10,11l-9,11l-9,10l-9,11l-10,11l-9,11l-10,11l-9,11l-10,11l-9,11l-9,10l-9,11l-11,12l-6,7l-547,0l9,28l19,62l17,56l18,58l16,53l26,84l16,53l25,81l6,20l-1,4l-15,-14l2,-1l-8,-27l-13,-42l-13,-43l-18,-58l-20,-66l-18,-58l-20,-66l-18,-58l-21,-69l-3,-11l547,-1l10,-11l9,-11l10,-11l9,-11l10,-11l9,-11l9,-10l9,-11l10,-11l9,-11l10,-11l9,-11l10,-11l9,-11l9,-10l9,-11l10,-11l9,-11l10,-11l9,-11l10,-11l9,-11l9,-10l9,-11l10,-11z" fill="#E6E6E6" id="svg_13"/>
    <path d="m1076.99966,901.33486l7,6l10,9l12,11l10,9l13,12l10,9l13,12l10,9l12,11l10,9l13,12l10,9l24,22l10,9l12,11l10,9l13,12l12,11l8,7l15,14l10,9l12,11l10,9l13,12l12,11l20,18l15,14l20,18l12,11l13,12l20,18l15,14l20,18l36,33l8,7l15,14l10,9l12,11l4,3l2,4l8,7l4,5l-13,16l-11,14l-9,11l-26,32l-11,14l-14,17l-11,14l-9,11l-26,32l-11,14l-14,17l-11,14l-14,17l-11,14l-14,17l-11,14l-14,17l-8,10l-13,16l-7,9l-894,0l3,-5l8,-10l-25,0l6,-8l10,-11l9,-11l10,-11l9,-11l9,-10l9,-11l11,-12l9,-11l9,-10l9,-11l11,-12l9,-11l9,-10l9,-11l11,-12l9,-11l9,-10l9,-11l10,-11l9,-11l10,-11l9,-11l10,-11l9,-11l9,-10l4,-5l547,0l-9,-31l-20,-64l-19,-63l-26,-84l-16,-53l-25,-81l-13,-43l-24,-78l0,-3z" fill="url(#svg_9)" id="svg_14"/>
    <path d="m686.33301,445.66819l895,0l-6,8l-5,6l24,0l-2,5l-12,13l-9,11l-9,10l-9,11l-11,12l-9,11l-9,10l-9,11l-10,11l-9,11l-10,11l-9,11l-10,11l-9,11l-9,10l-9,11l-10,11l-9,11l-10,11l-9,11l-10,11l-9,11l-9,10l-9,11l-11,12l-6,7l-547,0l9,28l19,62l17,56l18,58l16,53l26,84l16,53l25,81l6,20l-1,4l-15,-14l-10,-9l-12,-11l-10,-9l-36,-33l-10,-9l-12,-11l-10,-9l-13,-12l-10,-9l-24,-22l-10,-9l-12,-11l-10,-9l-13,-12l-12,-11l-8,-7l-15,-14l-10,-9l-12,-11l-10,-9l-13,-12l-12,-11l-20,-18l-15,-14l-20,-18l-12,-11l-13,-12l-20,-18l-13,-12l-12,-11l-10,-9l-36,-33l-8,-7l-15,-14l-16,-14l-1,-3l-8,-7l-5,-4l1,-4l11,-14l14,-17l13,-16l11,-14l14,-17l11,-14l14,-17l11,-14l14,-17l11,-14l14,-17l8,-10l13,-16l11,-14l14,-17l13,-16l11,-14l14,-17l11,-14l14,-17l9,-12z" fill="url(#svg_8)" id="svg_15"/>
    <path d="m1575.99966,459.66819l25,0l-2,5l-12,13l-9,11l-9,10l-9,11l-11,12l-9,11l-9,10l-9,11l-10,11l-9,11l-10,11l-9,11l-10,11l-9,11l-9,10l-9,11l-10,11l-9,11l-10,11l-9,11l-10,11l-9,11l-9,10l-9,11l-11,12l-6,7l-547,0l9,28l19,62l17,56l18,58l16,53l26,84l16,53l25,81l6,20l-1,4l-15,-14l2,-1l-8,-27l-13,-42l-13,-43l-18,-58l-20,-66l-18,-58l-20,-66l-18,-58l-21,-69l-3,-11l547,-1l10,-11l9,-11l10,-11l9,-11l10,-11l9,-11l9,-10l9,-11l10,-11l9,-11l10,-11l9,-11l10,-11l9,-11l9,-10l9,-11l10,-11l9,-11l10,-11l9,-11l10,-11l9,-11l9,-10l9,-11l10,-11z" fill="#E6E6E6" id="svg_17"/>
    <path d="m1076.99966,901.33486l7,6l10,9l12,11l10,9l13,12l10,9l13,12l10,9l12,11l10,9l13,12l10,9l24,22l10,9l12,11l10,9l13,12l12,11l8,7l15,14l10,9l12,11l10,9l13,12l12,11l20,18l15,14l20,18l12,11l13,12l20,18l15,14l20,18l36,33l8,7l15,14l10,9l12,11l4,3l2,4l8,7l4,5l-13,16l-11,14l-9,11l-26,32l-11,14l-14,17l-11,14l-9,11l-26,32l-11,14l-14,17l-11,14l-14,17l-11,14l-14,17l-11,14l-14,17l-8,10l-13,16l-7,9l-894,0l3,-5l8,-10l-25,0l6,-8l10,-11l9,-11l10,-11l9,-11l9,-10l9,-11l11,-12l9,-11l9,-10l9,-11l11,-12l9,-11l9,-10l9,-11l11,-12l9,-11l9,-10l9,-11l10,-11l9,-11l10,-11l9,-11l10,-11l9,-11l9,-10l4,-5l547,0l-9,-31l-20,-64l-19,-63l-26,-84l-16,-53l-25,-81l-13,-43l-24,-78l0,-3z" fill="url(#svg_9)" id="svg_18"/>
    <path d="m686.33301,445.66819l895,0l-6,8l-5,6l24,0l-2,5l-12,13l-9,11l-9,10l-9,11l-11,12l-9,11l-9,10l-9,11l-10,11l-9,11l-10,11l-9,11l-10,11l-9,11l-9,10l-9,11l-10,11l-9,11l-10,11l-9,11l-10,11l-9,11l-9,10l-9,11l-11,12l-6,7l-547,0l9,28l19,62l17,56l18,58l16,53l26,84l16,53l25,81l6,20l-1,4l-15,-14l-10,-9l-12,-11l-10,-9l-36,-33l-10,-9l-12,-11l-10,-9l-13,-12l-10,-9l-24,-22l-10,-9l-12,-11l-10,-9l-13,-12l-12,-11l-8,-7l-15,-14l-10,-9l-12,-11l-10,-9l-13,-12l-12,-11l-20,-18l-15,-14l-20,-18l-12,-11l-13,-12l-20,-18l-13,-12l-12,-11l-10,-9l-36,-33l-8,-7l-15,-14l-16,-14l-1,-3l-8,-7l-5,-4l1,-4l11,-14l14,-17l13,-16l11,-14l14,-17l11,-14l14,-17l11,-14l14,-17l11,-14l14,-17l8,-10l13,-16l11,-14l14,-17l13,-16l11,-14l14,-17l11,-14l14,-17l9,-12z" fill="url(#svg_8)" id="svg_19"/>
    <path d="m1575.99966,459.66819l25,0l-2,5l-12,13l-9,11l-9,10l-9,11l-11,12l-9,11l-9,10l-9,11l-10,11l-9,11l-10,11l-9,11l-10,11l-9,11l-9,10l-9,11l-10,11l-9,11l-10,11l-9,11l-10,11l-9,11l-9,10l-9,11l-11,12l-6,7l-547,0l9,28l19,62l17,56l18,58l16,53l26,84l16,53l25,81l6,20l-1,4l-15,-14l2,-1l-8,-27l-13,-42l-13,-43l-18,-58l-20,-66l-18,-58l-20,-66l-18,-58l-21,-69l-3,-11l547,-1l10,-11l9,-11l10,-11l9,-11l10,-11l9,-11l9,-10l9,-11l10,-11l9,-11l10,-11l9,-11l10,-11l9,-11l9,-10l9,-11l10,-11l9,-11l10,-11l9,-11l10,-11l9,-11l9,-10l9,-11l10,-11z" fill="#E6E6E6" id="svg_21"/>
    <path d="m1076.99966,901.33486l7,6l10,9l12,11l10,9l13,12l10,9l13,12l10,9l12,11l10,9l13,12l10,9l24,22l10,9l12,11l10,9l13,12l12,11l8,7l15,14l10,9l12,11l10,9l13,12l12,11l20,18l15,14l20,18l12,11l13,12l20,18l15,14l20,18l36,33l8,7l15,14l10,9l12,11l4,3l2,4l8,7l4,5l-13,16l-11,14l-9,11l-26,32l-11,14l-14,17l-11,14l-9,11l-26,32l-11,14l-14,17l-11,14l-14,17l-11,14l-14,17l-11,14l-14,17l-8,10l-13,16l-7,9l-894,0l3,-5l8,-10l-25,0l6,-8l10,-11l9,-11l10,-11l9,-11l9,-10l9,-11l11,-12l9,-11l9,-10l9,-11l11,-12l9,-11l9,-10l9,-11l11,-12l9,-11l9,-10l9,-11l10,-11l9,-11l10,-11l9,-11l10,-11l9,-11l9,-10l4,-5l547,0l-9,-31l-20,-64l-19,-63l-26,-84l-16,-53l-25,-81l-13,-43l-24,-78l0,-3z" fill="url(#svg_9)" id="svg_22"/>
    <path d="m686.33301,445.66819l895,0l-6,8l-5,6l24,0l-2,5l-12,13l-9,11l-9,10l-9,11l-11,12l-9,11l-9,10l-9,11l-10,11l-9,11l-10,11l-9,11l-10,11l-9,11l-9,10l-9,11l-10,11l-9,11l-10,11l-9,11l-10,11l-9,11l-9,10l-9,11l-11,12l-6,7l-547,0l9,28l19,62l17,56l18,58l16,53l26,84l16,53l25,81l6,20l-1,4l-15,-14l-10,-9l-12,-11l-10,-9l-36,-33l-10,-9l-12,-11l-10,-9l-13,-12l-10,-9l-24,-22l-10,-9l-12,-11l-10,-9l-13,-12l-12,-11l-8,-7l-15,-14l-10,-9l-12,-11l-10,-9l-13,-12l-12,-11l-20,-18l-15,-14l-20,-18l-12,-11l-13,-12l-20,-18l-13,-12l-12,-11l-10,-9l-36,-33l-8,-7l-15,-14l-16,-14l-1,-3l-8,-7l-5,-4l1,-4l11,-14l14,-17l13,-16l11,-14l14,-17l11,-14l14,-17l11,-14l14,-17l11,-14l14,-17l8,-10l13,-16l11,-14l14,-17l13,-16l11,-14l14,-17l11,-14l14,-17l9,-12z" fill="url(#svg_8)" id="svg_23"/>
    <path d="m1575.99966,459.66819l25,0l-2,5l-12,13l-9,11l-9,10l-9,11l-11,12l-9,11l-9,10l-9,11l-10,11l-9,11l-10,11l-9,11l-10,11l-9,11l-9,10l-9,11l-10,11l-9,11l-10,11l-9,11l-10,11l-9,11l-9,10l-9,11l-11,12l-6,7l-547,0l9,28l19,62l17,56l18,58l16,53l26,84l16,53l25,81l6,20l-1,4l-15,-14l2,-1l-8,-27l-13,-42l-13,-43l-18,-58l-20,-66l-18,-58l-20,-66l-18,-58l-21,-69l-3,-11l547,-1l10,-11l9,-11l10,-11l9,-11l10,-11l9,-11l9,-10l9,-11l10,-11l9,-11l10,-11l9,-11l10,-11l9,-11l9,-10l9,-11l10,-11l9,-11l10,-11l9,-11l10,-11l9,-11l9,-10l9,-11l10,-11z" fill="#E6E6E6" id="svg_25"/>
    <path d="m1076.99966,901.33486l7,6l10,9l12,11l10,9l13,12l10,9l13,12l10,9l12,11l10,9l13,12l10,9l24,22l10,9l12,11l10,9l13,12l12,11l8,7l15,14l10,9l12,11l10,9l13,12l12,11l20,18l15,14l20,18l12,11l13,12l20,18l15,14l20,18l36,33l8,7l15,14l10,9l12,11l4,3l2,4l8,7l4,5l-13,16l-11,14l-9,11l-26,32l-11,14l-14,17l-11,14l-9,11l-26,32l-11,14l-14,17l-11,14l-14,17l-11,14l-14,17l-11,14l-14,17l-8,10l-13,16l-7,9l-894,0l3,-5l8,-10l-25,0l6,-8l10,-11l9,-11l10,-11l9,-11l9,-10l9,-11l11,-12l9,-11l9,-10l9,-11l11,-12l9,-11l9,-10l9,-11l11,-12l9,-11l9,-10l9,-11l10,-11l9,-11l10,-11l9,-11l10,-11l9,-11l9,-10l4,-5l547,0l-9,-31l-20,-64l-19,-63l-26,-84l-16,-53l-25,-81l-13,-43l-24,-78l0,-3z" fill="url(#svg_9)" id="svg_26"/>
    <path d="m686.33301,445.66819l895,0l-6,8l-5,6l24,0l-2,5l-12,13l-9,11l-9,10l-9,11l-11,12l-9,11l-9,10l-9,11l-10,11l-9,11l-10,11l-9,11l-10,11l-9,11l-9,10l-9,11l-10,11l-9,11l-10,11l-9,11l-10,11l-9,11l-9,10l-9,11l-11,12l-6,7l-547,0l9,28l19,62l17,56l18,58l16,53l26,84l16,53l25,81l6,20l-1,4l-15,-14l-10,-9l-12,-11l-10,-9l-36,-33l-10,-9l-12,-11l-10,-9l-13,-12l-10,-9l-24,-22l-10,-9l-12,-11l-10,-9l-13,-12l-12,-11l-8,-7l-15,-14l-10,-9l-12,-11l-10,-9l-13,-12l-12,-11l-20,-18l-15,-14l-20,-18l-12,-11l-13,-12l-20,-18l-13,-12l-12,-11l-10,-9l-36,-33l-8,-7l-15,-14l-16,-14l-1,-3l-8,-7l-5,-4l1,-4l11,-14l14,-17l13,-16l11,-14l14,-17l11,-14l14,-17l11,-14l14,-17l11,-14l14,-17l8,-10l13,-16l11,-14l14,-17l13,-16l11,-14l14,-17l11,-14l14,-17l9,-12z" fill="url(#svg_8)" id="svg_27"/>
    <path d="m1575.99966,459.66819l25,0l-2,5l-12,13l-9,11l-9,10l-9,11l-11,12l-9,11l-9,10l-9,11l-10,11l-9,11l-10,11l-9,11l-10,11l-9,11l-9,10l-9,11l-10,11l-9,11l-10,11l-9,11l-10,11l-9,11l-9,10l-9,11l-11,12l-6,7l-547,0l9,28l19,62l17,56l18,58l16,53l26,84l16,53l25,81l6,20l-1,4l-15,-14l2,-1l-8,-27l-13,-42l-13,-43l-18,-58l-20,-66l-18,-58l-20,-66l-18,-58l-21,-69l-3,-11l547,-1l10,-11l9,-11l10,-11l9,-11l10,-11l9,-11l9,-10l9,-11l10,-11l9,-11l10,-11l9,-11l10,-11l9,-11l9,-10l9,-11l10,-11l9,-11l10,-11l9,-11l10,-11l9,-11l9,-10l9,-11l10,-11z" fill="#E6E6E6" id="svg_29"/>
    <path d="m1076.99966,901.33486l7,6l10,9l12,11l10,9l13,12l10,9l13,12l10,9l12,11l10,9l13,12l10,9l24,22l10,9l12,11l10,9l13,12l12,11l8,7l15,14l10,9l12,11l10,9l13,12l12,11l20,18l15,14l20,18l12,11l13,12l20,18l15,14l20,18l36,33l8,7l15,14l10,9l12,11l4,3l2,4l8,7l4,5l-13,16l-11,14l-9,11l-26,32l-11,14l-14,17l-11,14l-9,11l-26,32l-11,14l-14,17l-11,14l-14,17l-11,14l-14,17l-11,14l-14,17l-8,10l-13,16l-7,9l-894,0l3,-5l8,-10l-25,0l6,-8l10,-11l9,-11l10,-11l9,-11l9,-10l9,-11l11,-12l9,-11l9,-10l9,-11l11,-12l9,-11l9,-10l9,-11l11,-12l9,-11l9,-10l9,-11l10,-11l9,-11l10,-11l9,-11l10,-11l9,-11l9,-10l4,-5l547,0l-9,-31l-20,-64l-19,-63l-26,-84l-16,-53l-25,-81l-13,-43l-24,-78l0,-3z" fill="url(#svg_9)" id="svg_30"/>
    <path d="m686.33301,445.66819l895,0l-6,8l-5,6l24,0l-2,5l-12,13l-9,11l-9,10l-9,11l-11,12l-9,11l-9,10l-9,11l-10,11l-9,11l-10,11l-9,11l-10,11l-9,11l-9,10l-9,11l-10,11l-9,11l-10,11l-9,11l-10,11l-9,11l-9,10l-9,11l-11,12l-6,7l-547,0l9,28l19,62l17,56l18,58l16,53l26,84l16,53l25,81l6,20l-1,4l-15,-14l-10,-9l-12,-11l-10,-9l-36,-33l-10,-9l-12,-11l-10,-9l-13,-12l-10,-9l-24,-22l-10,-9l-12,-11l-10,-9l-13,-12l-12,-11l-8,-7l-15,-14l-10,-9l-12,-11l-10,-9l-13,-12l-12,-11l-20,-18l-15,-14l-20,-18l-12,-11l-13,-12l-20,-18l-13,-12l-12,-11l-10,-9l-36,-33l-8,-7l-15,-14l-16,-14l-1,-3l-8,-7l-5,-4l1,-4l11,-14l14,-17l13,-16l11,-14l14,-17l11,-14l14,-17l11,-14l14,-17l11,-14l14,-17l8,-10l13,-16l11,-14l14,-17l13,-16l11,-14l14,-17l11,-14l14,-17l9,-12z" fill="url(#svg_8)" id="svg_31"/>
    <path d="m1575.99966,459.66819l25,0l-2,5l-12,13l-9,11l-9,10l-9,11l-11,12l-9,11l-9,10l-9,11l-10,11l-9,11l-10,11l-9,11l-10,11l-9,11l-9,10l-9,11l-10,11l-9,11l-10,11l-9,11l-10,11l-9,11l-9,10l-9,11l-11,12l-6,7l-547,0l9,28l19,62l17,56l18,58l16,53l26,84l16,53l25,81l6,20l-1,4l-15,-14l2,-1l-8,-27l-13,-42l-13,-43l-18,-58l-20,-66l-18,-58l-20,-66l-18,-58l-21,-69l-3,-11l547,-1l10,-11l9,-11l10,-11l9,-11l10,-11l9,-11l9,-10l9,-11l10,-11l9,-11l10,-11l9,-11l10,-11l9,-11l9,-10l9,-11l10,-11l9,-11l10,-11l9,-11l10,-11l9,-11l9,-10l9,-11l10,-11z" fill="#E6E6E6" id="svg_33"/>
    <path d="m1076.99966,901.33486l7,6l10,9l12,11l10,9l13,12l10,9l13,12l10,9l12,11l10,9l13,12l10,9l24,22l10,9l12,11l10,9l13,12l12,11l8,7l15,14l10,9l12,11l10,9l13,12l12,11l20,18l15,14l20,18l12,11l13,12l20,18l15,14l20,18l36,33l8,7l15,14l10,9l12,11l4,3l2,4l8,7l4,5l-13,16l-11,14l-9,11l-26,32l-11,14l-14,17l-11,14l-9,11l-26,32l-11,14l-14,17l-11,14l-14,17l-11,14l-14,17l-11,14l-14,17l-8,10l-13,16l-7,9l-894,0l3,-5l8,-10l-25,0l6,-8l10,-11l9,-11l10,-11l9,-11l9,-10l9,-11l11,-12l9,-11l9,-10l9,-11l11,-12l9,-11l9,-10l9,-11l11,-12l9,-11l9,-10l9,-11l10,-11l9,-11l10,-11l9,-11l10,-11l9,-11l9,-10l4,-5l547,0l-9,-31l-20,-64l-19,-63l-26,-84l-16,-53l-25,-81l-13,-43l-24,-78l0,-3z" fill="url(#svg_9)" id="svg_34"/>
    <path d="m686.33301,445.66819l895,0l-6,8l-5,6l24,0l-2,5l-12,13l-9,11l-9,10l-9,11l-11,12l-9,11l-9,10l-9,11l-10,11l-9,11l-10,11l-9,11l-10,11l-9,11l-9,10l-9,11l-10,11l-9,11l-10,11l-9,11l-10,11l-9,11l-9,10l-9,11l-11,12l-6,7l-547,0l9,28l19,62l17,56l18,58l16,53l26,84l16,53l25,81l6,20l-1,4l-15,-14l-10,-9l-12,-11l-10,-9l-36,-33l-10,-9l-12,-11l-10,-9l-13,-12l-10,-9l-24,-22l-10,-9l-12,-11l-10,-9l-13,-12l-12,-11l-8,-7l-15,-14l-10,-9l-12,-11l-10,-9l-13,-12l-12,-11l-20,-18l-15,-14l-20,-18l-12,-11l-13,-12l-20,-18l-13,-12l-12,-11l-10,-9l-36,-33l-8,-7l-15,-14l-16,-14l-1,-3l-8,-7l-5,-4l1,-4l11,-14l14,-17l13,-16l11,-14l14,-17l11,-14l14,-17l11,-14l14,-17l11,-14l14,-17l8,-10l13,-16l11,-14l14,-17l13,-16l11,-14l14,-17l11,-14l14,-17l9,-12z" fill="url(#svg_8)" id="svg_35"/>
    <path d="m1575.99966,459.66819l25,0l-2,5l-12,13l-9,11l-9,10l-9,11l-11,12l-9,11l-9,10l-9,11l-10,11l-9,11l-10,11l-9,11l-10,11l-9,11l-9,10l-9,11l-10,11l-9,11l-10,11l-9,11l-10,11l-9,11l-9,10l-9,11l-11,12l-6,7l-547,0l9,28l19,62l17,56l18,58l16,53l26,84l16,53l25,81l6,20l-1,4l-15,-14l2,-1l-8,-27l-13,-42l-13,-43l-18,-58l-20,-66l-18,-58l-20,-66l-18,-58l-21,-69l-3,-11l547,-1l10,-11l9,-11l10,-11l9,-11l10,-11l9,-11l9,-10l9,-11l10,-11l9,-11l10,-11l9,-11l10,-11l9,-11l9,-10l9,-11l10,-11l9,-11l10,-11l9,-11l10,-11l9,-11l9,-10l9,-11l10,-11z" fill="#E6E6E6" id="svg_37"/>
   </g>
  </g>
 </g>
</svg>